<?xml version="1.0" encoding="UTF-8"?>
<svg width="220px" height="41px" viewBox="0 0 220 41" version="1.1" xmlns="http://www.w3.org/2000/svg" xmlns:xlink="http://www.w3.org/1999/xlink">
    <!-- Generator: Sketch 62 (91390) - https://sketch.com -->
    <title>Swoop</title>
    <desc>Created with Sketch.</desc>
    <g id="Swoop-Login-editable" stroke="none" stroke-width="1" fill="none" fill-rule="evenodd">
        <g id="Artboard-Copy" transform="translate(-2046.000000, -2002.000000)">
            <g id="social-login-screen-copy-4" transform="translate(2046.000000, 2002.000000)">
                <g id="Social">
                    <g id="Swoop">
                        <path d="M217.861808,40.75 L2.1295349,40.75 C0.952231054,40.75 0,39.65 0,38.29 L0,2.46 C0,1.1 0.952231054,2.84217094e-14 2.1295349,2.84217094e-14 L217.870465,2.84217094e-14 C219.047769,2.84217094e-14 220,1.1 220,2.46 L220,38.29 C220,39.65 219.039112,40.75 217.861808,40.75 Z" id="Path" fill="#13B47E" fill-rule="nonzero"></path>
                        <path d="M52.549,25.112 C53.081,25.112 53.5558333,25.0303333 53.9735,24.867 C54.3911667,24.7036667 54.7435,24.4796667 55.0305,24.195 C55.3175,23.9103333 55.5356667,23.5755 55.685,23.1905 C55.8343333,22.8055 55.909,22.3936667 55.909,21.955 C55.909,21.5396667 55.8401667,21.1896667 55.7025,20.905 C55.5648333,20.6203333 55.3828333,20.38 55.1565,20.184 C54.9301667,19.988 54.6735,19.8258333 54.3865,19.6975 C54.0995,19.5691667 53.8055,19.4536667 53.5045,19.351 C53.2035,19.2483333 52.9095,19.1491667 52.6225,19.0535 C52.3355,18.9578333 52.0788333,18.8446667 51.8525,18.714 C51.6261667,18.5833333 51.4441667,18.4258333 51.3065,18.2415 C51.1688333,18.0571667 51.1,17.825 51.1,17.545 C51.1,17.3256667 51.1396667,17.1215 51.219,16.9325 C51.2983333,16.7435 51.4161667,16.579 51.5725,16.439 C51.7288333,16.299 51.9236667,16.1881667 52.157,16.1065 C52.3903333,16.0248333 52.6586667,15.984 52.962,15.984 C53.284,15.984 53.5581667,16.0236667 53.7845,16.103 C54.0108333,16.1823333 54.2045,16.2698333 54.3655,16.3655 C54.5265,16.4611667 54.6595,16.5486667 54.7645,16.628 C54.8695,16.7073333 54.9616667,16.747 55.041,16.747 C55.1156667,16.747 55.1763333,16.7295 55.223,16.6945 C55.2696667,16.6595 55.314,16.607 55.356,16.537 L55.356,16.537 L55.685,15.893 C55.3396667,15.557 54.936,15.3003333 54.474,15.123 C54.012,14.9456667 53.501,14.857 52.941,14.857 C52.4416667,14.857 51.9995,14.934 51.6145,15.088 C51.2295,15.242 50.9063333,15.4473333 50.645,15.704 C50.3836667,15.9606667 50.1841667,16.2546667 50.0465,16.586 C49.9088333,16.9173333 49.84,17.2603333 49.84,17.615 C49.84,18.0583333 49.9088333,18.4305 50.0465,18.7315 C50.1841667,19.0325 50.365,19.2833333 50.589,19.484 C50.813,19.6846667 51.0685,19.848 51.3555,19.974 C51.6425,20.1 51.9365,20.2108333 52.2375,20.3065 C52.5385,20.4021667 52.8325,20.4955 53.1195,20.5865 C53.4065,20.6775 53.662,20.7883333 53.886,20.919 C54.11,21.0496667 54.2908333,21.2118333 54.4285,21.4055 C54.5661667,21.5991667 54.635,21.8476667 54.635,22.151 C54.635,22.4263333 54.5883333,22.676 54.495,22.9 C54.4016667,23.124 54.2675,23.3165 54.0925,23.4775 C53.9175,23.6385 53.704,23.7633333 53.452,23.852 C53.2,23.9406667 52.913,23.985 52.591,23.985 C52.2036667,23.985 51.8758333,23.9325 51.6075,23.8275 C51.3391667,23.7225 51.1105,23.607 50.9215,23.481 C50.7325,23.355 50.575,23.2395 50.449,23.1345 C50.323,23.0295 50.211,22.977 50.113,22.977 C50.0476667,22.977 49.9881667,22.9945 49.9345,23.0295 C49.8808333,23.0645 49.8353333,23.1076667 49.798,23.159 L49.798,23.159 L49.406,23.803 C49.784,24.2043333 50.2401667,24.5228333 50.7745,24.7585 C51.3088333,24.9941667 51.9003333,25.112 52.549,25.112 Z M59.97075,25 C60.11075,25 60.2064167,24.9206667 60.25775,24.762 L60.25775,24.762 L61.84675,19.96 C61.8840833,19.8526667 61.9144167,19.743 61.93775,19.631 C61.9610833,19.519 61.9844167,19.4093333 62.00775,19.302 C62.0310833,19.4093333 62.0544167,19.5178333 62.07775,19.6275 C62.1010833,19.7371667 62.1314167,19.8456667 62.16875,19.953 L62.16875,19.953 L63.73675,24.762 C63.7834167,24.9206667 63.8674167,25 63.98875,25 L63.98875,25 L64.97575,25 L67.27175,17.909 L66.33375,17.909 C66.2450833,17.909 66.1680833,17.9335 66.10275,17.9825 C66.0374167,18.0315 65.9930833,18.0933333 65.96975,18.168 L65.96975,18.168 L64.58375,22.732 C64.54175,22.8766667 64.5020833,23.033 64.46475,23.201 C64.4274167,23.369 64.3970833,23.53 64.37375,23.684 C64.3364167,23.53 64.2979167,23.3736667 64.25825,23.215 C64.2185833,23.0563333 64.1730833,22.8953333 64.12175,22.732 L64.12175,22.732 L62.65875,18.14 C62.6354167,18.07 62.5934167,18.0116667 62.53275,17.965 C62.4720833,17.9183333 62.3950833,17.895 62.30175,17.895 L62.30175,17.895 L61.76275,17.895 C61.6740833,17.895 61.6005833,17.9183333 61.54225,17.965 C61.4839167,18.0116667 61.4430833,18.07 61.41975,18.14 L61.41975,18.14 L59.92175,22.732 C59.8704167,22.9 59.8214167,23.0621667 59.77475,23.2185 C59.7280833,23.3748333 59.6860833,23.5323333 59.64875,23.691 C59.6254167,23.5323333 59.5974167,23.3748333 59.56475,23.2185 C59.5320833,23.0621667 59.4970833,22.9 59.45975,22.732 L59.45975,22.732 L58.10175,18.168 C58.0784167,18.098 58.0340833,18.0373333 57.96875,17.986 C57.9034167,17.9346667 57.8194167,17.909 57.71675,17.909 L57.71675,17.909 L56.73675,17.909 L59.03275,25 L59.97075,25 Z M71.4735,25.098 C71.9915,25.098 72.4593333,25.0128333 72.877,24.8425 C73.2946667,24.6721667 73.6493333,24.4283333 73.941,24.111 C74.2326667,23.7936667 74.4566667,23.411 74.613,22.963 C74.7693333,22.515 74.8475,22.011 74.8475,21.451 C74.8475,20.8956667 74.7693333,20.3928333 74.613,19.9425 C74.4566667,19.4921667 74.2326667,19.1083333 73.941,18.791 C73.6493333,18.4736667 73.2946667,18.2286667 72.877,18.056 C72.4593333,17.8833333 71.9915,17.797 71.4735,17.797 C70.9555,17.797 70.4876667,17.8833333 70.07,18.056 C69.6523333,18.2286667 69.2965,18.4736667 69.0025,18.791 C68.7085,19.1083333 68.4821667,19.4921667 68.3235,19.9425 C68.1648333,20.3928333 68.0855,20.8956667 68.0855,21.451 C68.0855,22.011 68.1648333,22.515 68.3235,22.963 C68.4821667,23.411 68.7085,23.7936667 69.0025,24.111 C69.2965,24.4283333 69.6523333,24.6721667 70.07,24.8425 C70.4876667,25.0128333 70.9555,25.098 71.4735,25.098 Z M71.4735,24.125 C71.1188333,24.125 70.8108333,24.0643333 70.5495,23.943 C70.2881667,23.8216667 70.07,23.6478333 69.895,23.4215 C69.72,23.1951667 69.5893333,22.9163333 69.503,22.585 C69.4166667,22.2536667 69.3735,21.878 69.3735,21.458 C69.3735,21.038 69.4166667,20.6611667 69.503,20.3275 C69.5893333,19.9938333 69.72,19.7126667 69.895,19.484 C70.07,19.2553333 70.2881667,19.0803333 70.5495,18.959 C70.8108333,18.8376667 71.1188333,18.777 71.4735,18.777 C72.1735,18.777 72.6961667,19.0126667 73.0415,19.484 C73.3868333,19.9553333 73.5595,20.6133333 73.5595,21.458 C73.5595,22.298 73.3868333,22.9525 73.0415,23.4215 C72.6961667,23.8905 72.1735,24.125 71.4735,24.125 Z M79.47625,25.098 C79.99425,25.098 80.4620833,25.0128333 80.87975,24.8425 C81.2974167,24.6721667 81.6520833,24.4283333 81.94375,24.111 C82.2354167,23.7936667 82.4594167,23.411 82.61575,22.963 C82.7720833,22.515 82.85025,22.011 82.85025,21.451 C82.85025,20.8956667 82.7720833,20.3928333 82.61575,19.9425 C82.4594167,19.4921667 82.2354167,19.1083333 81.94375,18.791 C81.6520833,18.4736667 81.2974167,18.2286667 80.87975,18.056 C80.4620833,17.8833333 79.99425,17.797 79.47625,17.797 C78.95825,17.797 78.4904167,17.8833333 78.07275,18.056 C77.6550833,18.2286667 77.29925,18.4736667 77.00525,18.791 C76.71125,19.1083333 76.4849167,19.4921667 76.32625,19.9425 C76.1675833,20.3928333 76.08825,20.8956667 76.08825,21.451 C76.08825,22.011 76.1675833,22.515 76.32625,22.963 C76.4849167,23.411 76.71125,23.7936667 77.00525,24.111 C77.29925,24.4283333 77.6550833,24.6721667 78.07275,24.8425 C78.4904167,25.0128333 78.95825,25.098 79.47625,25.098 Z M79.47625,24.125 C79.1215833,24.125 78.8135833,24.0643333 78.55225,23.943 C78.2909167,23.8216667 78.07275,23.6478333 77.89775,23.4215 C77.72275,23.1951667 77.5920833,22.9163333 77.50575,22.585 C77.4194167,22.2536667 77.37625,21.878 77.37625,21.458 C77.37625,21.038 77.4194167,20.6611667 77.50575,20.3275 C77.5920833,19.9938333 77.72275,19.7126667 77.89775,19.484 C78.07275,19.2553333 78.2909167,19.0803333 78.55225,18.959 C78.8135833,18.8376667 79.1215833,18.777 79.47625,18.777 C80.17625,18.777 80.6989167,19.0126667 81.04425,19.484 C81.3895833,19.9553333 81.56225,20.6133333 81.56225,21.458 C81.56225,22.298 81.3895833,22.9525 81.04425,23.4215 C80.6989167,23.8905 80.17625,24.125 79.47625,24.125 Z M85.855,27.401 L85.855,24.265 C86.093,24.531 86.3671667,24.7363333 86.6775,24.881 C86.9878333,25.0256667 87.3623333,25.098 87.801,25.098 C88.277,25.098 88.7051667,25.0035 89.0855,24.8145 C89.4658333,24.6255 89.7866667,24.3665 90.048,24.0375 C90.3093333,23.7085 90.51,23.3188333 90.65,22.8685 C90.79,22.4181667 90.86,21.9316667 90.86,21.409 C90.86,20.821 90.797,20.3006667 90.671,19.848 C90.545,19.3953333 90.3653333,19.0161667 90.132,18.7105 C89.8986667,18.4048333 89.6163333,18.1738333 89.285,18.0175 C88.9536667,17.8611667 88.585,17.783 88.179,17.783 C87.6703333,17.783 87.2211667,17.895 86.8315,18.119 C86.4418333,18.343 86.0953333,18.6393333 85.792,19.008 L85.792,19.008 L85.687,18.168 C85.6403333,17.9953333 85.5283333,17.909 85.351,17.909 L85.351,17.909 L84.609,17.909 L84.609,27.401 L85.855,27.401 Z M87.521,24.132 C87.185,24.132 86.8805,24.069 86.6075,23.943 C86.3345,23.817 86.0836667,23.6 85.855,23.292 L85.855,23.292 L85.855,19.862 C86.1116667,19.5213333 86.3928333,19.2576667 86.6985,19.071 C87.0041667,18.8843333 87.36,18.791 87.766,18.791 C88.0506667,18.791 88.305,18.84 88.529,18.938 C88.753,19.036 88.942,19.1911667 89.096,19.4035 C89.25,19.6158333 89.3678333,19.8876667 89.4495,20.219 C89.5311667,20.5503333 89.572,20.947 89.572,21.409 C89.572,22.2816667 89.3946667,22.9536667 89.04,23.425 C88.6853333,23.8963333 88.179,24.132 87.521,24.132 Z M97.2825,25 L97.2825,14.969 L95.9245,14.969 L95.9245,25 L97.2825,25 Z M101.23925,25 L101.23925,19.778 C101.509917,19.4746667 101.805083,19.2343333 102.12475,19.057 C102.444417,18.8796667 102.788583,18.791 103.15725,18.791 C103.66125,18.791 104.03575,18.9391667 104.28075,19.2355 C104.52575,19.5318333 104.64825,19.9483333 104.64825,20.485 L104.64825,20.485 L104.64825,25 L105.89425,25 L105.89425,20.485 C105.89425,20.0836667 105.842917,19.7173333 105.74025,19.386 C105.637583,19.0546667 105.487083,18.7711667 105.28875,18.5355 C105.090417,18.2998333 104.843083,18.1178333 104.54675,17.9895 C104.250417,17.8611667 103.908583,17.797 103.52125,17.797 C103.021917,17.797 102.582083,17.902 102.20175,18.112 C101.821417,18.322 101.47725,18.5973333 101.16925,18.938 L101.16925,18.938 L101.07125,18.168 C101.024583,17.9953333 100.912583,17.909 100.73525,17.909 L100.73525,17.909 L99.99325,17.909 L99.99325,25 L101.23925,25 Z M113.22675,25 C113.36675,25 113.462417,24.9206667 113.51375,24.762 L113.51375,24.762 L115.10275,19.96 C115.140083,19.8526667 115.170417,19.743 115.19375,19.631 C115.217083,19.519 115.240417,19.4093333 115.26375,19.302 C115.287083,19.4093333 115.310417,19.5178333 115.33375,19.6275 C115.357083,19.7371667 115.387417,19.8456667 115.42475,19.953 L115.42475,19.953 L116.99275,24.762 C117.039417,24.9206667 117.123417,25 117.24475,25 L117.24475,25 L118.23175,25 L120.52775,17.909 L119.58975,17.909 C119.501083,17.909 119.424083,17.9335 119.35875,17.9825 C119.293417,18.0315 119.249083,18.0933333 119.22575,18.168 L119.22575,18.168 L117.83975,22.732 C117.79775,22.8766667 117.758083,23.033 117.72075,23.201 C117.683417,23.369 117.653083,23.53 117.62975,23.684 C117.592417,23.53 117.553917,23.3736667 117.51425,23.215 C117.474583,23.0563333 117.429083,22.8953333 117.37775,22.732 L117.37775,22.732 L115.91475,18.14 C115.891417,18.07 115.849417,18.0116667 115.78875,17.965 C115.728083,17.9183333 115.651083,17.895 115.55775,17.895 L115.55775,17.895 L115.01875,17.895 C114.930083,17.895 114.856583,17.9183333 114.79825,17.965 C114.739917,18.0116667 114.699083,18.07 114.67575,18.14 L114.67575,18.14 L113.17775,22.732 C113.126417,22.9 113.077417,23.0621667 113.03075,23.2185 C112.984083,23.3748333 112.942083,23.5323333 112.90475,23.691 C112.881417,23.5323333 112.853417,23.3748333 112.82075,23.2185 C112.788083,23.0621667 112.753083,22.9 112.71575,22.732 L112.71575,22.732 L111.35775,18.168 C111.334417,18.098 111.290083,18.0373333 111.22475,17.986 C111.159417,17.9346667 111.075417,17.909 110.97275,17.909 L110.97275,17.909 L109.99275,17.909 L112.28875,25 L113.22675,25 Z M122.6295,16.565 C122.750833,16.565 122.865167,16.5416667 122.9725,16.495 C123.079833,16.4483333 123.174333,16.3841667 123.256,16.3025 C123.337667,16.2208333 123.403,16.1275 123.452,16.0225 C123.501,15.9175 123.5255,15.8043333 123.5255,15.683 C123.5255,15.5616667 123.501,15.4461667 123.452,15.3365 C123.403,15.2268333 123.337667,15.1311667 123.256,15.0495 C123.174333,14.9678333 123.079833,14.9036667 122.9725,14.857 C122.865167,14.8103333 122.750833,14.787 122.6295,14.787 C122.508167,14.787 122.395,14.8103333 122.29,14.857 C122.185,14.9036667 122.091667,14.9678333 122.01,15.0495 C121.928333,15.1311667 121.864167,15.2268333 121.8175,15.3365 C121.770833,15.4461667 121.7475,15.5616667 121.7475,15.683 C121.7475,15.8043333 121.770833,15.9175 121.8175,16.0225 C121.864167,16.1275 121.928333,16.2208333 122.01,16.3025 C122.091667,16.3841667 122.185,16.4483333 122.29,16.495 C122.395,16.5416667 122.508167,16.565 122.6295,16.565 Z M123.2455,25 L123.2455,17.909 L121.9995,17.909 L121.9995,25 L123.2455,25 Z M127.81125,25.112 C128.13325,25.112 128.445917,25.0548333 128.74925,24.9405 C129.052583,24.8261667 129.311583,24.6686667 129.52625,24.468 L129.52625,24.468 L129.16225,23.873 C129.110917,23.7936667 129.052583,23.754 128.98725,23.754 C128.949917,23.754 128.90675,23.7715 128.85775,23.8065 C128.80875,23.8415 128.74925,23.88 128.67925,23.922 C128.60925,23.964 128.526417,24.0025 128.43075,24.0375 C128.335083,24.0725 128.221917,24.09 128.09125,24.09 C127.862583,24.09 127.675917,24.0176667 127.53125,23.873 C127.386583,23.7283333 127.31425,23.5066667 127.31425,23.208 L127.31425,23.208 L127.31425,18.952 L129.34425,18.952 L129.34425,18.049 L127.31425,18.049 L127.31425,15.606 L126.68425,15.606 C126.604917,15.606 126.539583,15.6281667 126.48825,15.6725 C126.436917,15.7168333 126.406583,15.774 126.39725,15.844 L126.39725,15.844 L126.11025,18.035 L124.94825,18.182 L124.94825,18.679 C124.94825,18.7723333 124.973917,18.8411667 125.02525,18.8855 C125.076583,18.9298333 125.139583,18.952 125.21425,18.952 L125.21425,18.952 L126.06825,18.952 L126.06825,23.292 C126.06825,23.88 126.21875,24.3303333 126.51975,24.643 C126.82075,24.9556667 127.25125,25.112 127.81125,25.112 Z M132.349,25 L132.349,19.778 C132.619667,19.4746667 132.914833,19.2343333 133.2345,19.057 C133.554167,18.8796667 133.898333,18.791 134.267,18.791 C134.771,18.791 135.1455,18.9391667 135.3905,19.2355 C135.6355,19.5318333 135.758,19.9483333 135.758,20.485 L135.758,20.485 L135.758,25 L137.004,25 L137.004,20.485 C137.004,20.0836667 136.952667,19.7173333 136.85,19.386 C136.747333,19.0546667 136.596833,18.7711667 136.3985,18.5355 C136.200167,18.2998333 135.952833,18.1178333 135.6565,17.9895 C135.360167,17.8611667 135.018333,17.797 134.631,17.797 C134.150333,17.797 133.725667,17.8938333 133.357,18.0875 C132.988333,18.2811667 132.652333,18.539 132.349,18.861 L132.349,18.861 L132.349,14.689 L131.103,14.689 L131.103,25 L132.349,25 Z M148.4035,25 L148.4035,23.894 L143.5875,23.894 L143.5875,20.471 L147.4865,20.471 L147.4865,19.407 L143.5875,19.407 L143.5875,16.075 L148.4035,16.075 L148.4035,14.969 L142.2225,14.969 L142.2225,25 L148.4035,25 Z M151.62525,25 L151.62525,19.715 C151.844583,19.4303333 152.086083,19.2051667 152.34975,19.0395 C152.613417,18.8738333 152.89925,18.791 153.20725,18.791 C153.645917,18.791 153.979583,18.931 154.20825,19.211 C154.436917,19.491 154.55125,19.9156667 154.55125,20.485 L154.55125,20.485 L154.55125,25 L155.79725,25 L155.79725,20.485 C155.79725,20.205 155.838083,19.9588333 155.91975,19.7465 C156.001417,19.5341667 156.11225,19.358 156.25225,19.218 C156.39225,19.078 156.554417,18.9718333 156.73875,18.8995 C156.923083,18.8271667 157.117917,18.791 157.32325,18.791 C157.78525,18.791 158.137583,18.9345 158.38025,19.2215 C158.622917,19.5085 158.74425,19.9296667 158.74425,20.485 L158.74425,20.485 L158.74425,25 L159.99025,25 L159.99025,20.485 C159.99025,20.0556667 159.936583,19.6741667 159.82925,19.3405 C159.721917,19.0068333 159.56675,18.7256667 159.36375,18.497 C159.16075,18.2683333 158.913417,18.0945 158.62175,17.9755 C158.330083,17.8565 157.997583,17.797 157.62425,17.797 C157.390917,17.797 157.161083,17.825 156.93475,17.881 C156.708417,17.937 156.494917,18.0256667 156.29425,18.147 C156.093583,18.2683333 155.91275,18.4223333 155.75175,18.609 C155.59075,18.7956667 155.46125,19.0173333 155.36325,19.274 C155.232583,18.8213333 155.019083,18.462 154.72275,18.196 C154.426417,17.93 154.037917,17.797 153.55725,17.797 C153.127917,17.797 152.751083,17.8996667 152.42675,18.105 C152.102417,18.3103333 151.809583,18.574 151.54825,18.896 L151.54825,18.896 L151.45725,18.168 C151.410583,17.9953333 151.298583,17.909 151.12125,17.909 L151.12125,17.909 L150.37925,17.909 L150.37925,25 L151.62525,25 Z M163.695,25.112 C163.965667,25.112 164.211833,25.0886667 164.4335,25.042 C164.655167,24.9953333 164.864,24.9265 165.06,24.8355 C165.256,24.7445 165.442667,24.6325 165.62,24.4995 C165.797333,24.3665 165.979333,24.216 166.166,24.048 L166.166,24.048 L166.306,24.706 C166.329333,24.8273333 166.378333,24.9066667 166.453,24.944 C166.527667,24.9813333 166.625667,25 166.747,25 L166.747,25 L167.3,25 L167.3,20.464 C167.3,20.0673333 167.246333,19.7033333 167.139,19.372 C167.031667,19.0406667 166.873,18.7583333 166.663,18.525 C166.453,18.2916667 166.194,18.1096667 165.886,17.979 C165.578,17.8483333 165.225667,17.783 164.829,17.783 C164.278333,17.783 163.776667,17.8763333 163.324,18.063 C162.871333,18.2496667 162.449,18.532 162.057,18.91 L162.057,18.91 L162.281,19.309 C162.318333,19.3743333 162.3685,19.4291667 162.4315,19.4735 C162.4945,19.5178333 162.568,19.54 162.652,19.54 C162.759333,19.54 162.867833,19.5015 162.9775,19.4245 C163.087167,19.3475 163.217833,19.2611667 163.3695,19.1655 C163.521167,19.0698333 163.700833,18.9835 163.9085,18.9065 C164.116167,18.8295 164.371667,18.791 164.675,18.791 C165.137,18.791 165.485833,18.9321667 165.7215,19.2145 C165.957167,19.4968333 166.075,19.9133333 166.075,20.464 L166.075,20.464 L166.075,21.017 C165.272333,21.0356667 164.593333,21.1091667 164.038,21.2375 C163.482667,21.3658333 163.0335,21.5303333 162.6905,21.731 C162.3475,21.9316667 162.099,22.1615 161.945,22.4205 C161.791,22.6795 161.714,22.949 161.714,23.229 C161.714,23.551 161.7665,23.8298333 161.8715,24.0655 C161.9765,24.3011667 162.117667,24.496 162.295,24.65 C162.472333,24.804 162.681167,24.9195 162.9215,24.9965 C163.161833,25.0735 163.419667,25.112 163.695,25.112 Z M164.066,24.237 C163.902667,24.237 163.751,24.2171667 163.611,24.1775 C163.471,24.1378333 163.349667,24.0748333 163.247,23.9885 C163.144333,23.9021667 163.062667,23.7913333 163.002,23.656 C162.941333,23.5206667 162.911,23.3596667 162.911,23.173 C162.911,22.977 162.968167,22.7996667 163.0825,22.641 C163.196833,22.4823333 163.38,22.3446667 163.632,22.228 C163.884,22.1113333 164.210667,22.0168333 164.612,21.9445 C165.013333,21.8721667 165.501,21.8266667 166.075,21.808 L166.075,21.808 L166.075,23.285 C165.935,23.4343333 165.7915,23.5673333 165.6445,23.684 C165.4975,23.8006667 165.3435,23.8998333 165.1825,23.9815 C165.0215,24.0631667 164.85,24.1261667 164.668,24.1705 C164.486,24.2148333 164.285333,24.237 164.066,24.237 Z M170.17875,16.565 C170.300083,16.565 170.414417,16.5416667 170.52175,16.495 C170.629083,16.4483333 170.723583,16.3841667 170.80525,16.3025 C170.886917,16.2208333 170.95225,16.1275 171.00125,16.0225 C171.05025,15.9175 171.07475,15.8043333 171.07475,15.683 C171.07475,15.5616667 171.05025,15.4461667 171.00125,15.3365 C170.95225,15.2268333 170.886917,15.1311667 170.80525,15.0495 C170.723583,14.9678333 170.629083,14.9036667 170.52175,14.857 C170.414417,14.8103333 170.300083,14.787 170.17875,14.787 C170.057417,14.787 169.94425,14.8103333 169.83925,14.857 C169.73425,14.9036667 169.640917,14.9678333 169.55925,15.0495 C169.477583,15.1311667 169.413417,15.2268333 169.36675,15.3365 C169.320083,15.4461667 169.29675,15.5616667 169.29675,15.683 C169.29675,15.8043333 169.320083,15.9175 169.36675,16.0225 C169.413417,16.1275 169.477583,16.2208333 169.55925,16.3025 C169.640917,16.3841667 169.73425,16.4483333 169.83925,16.495 C169.94425,16.5416667 170.057417,16.565 170.17875,16.565 Z M170.79475,25 L170.79475,17.909 L169.54875,17.909 L169.54875,25 L170.79475,25 Z M174.5975,25 L174.5975,14.689 L173.3515,14.689 L173.3515,25 L174.5975,25 Z" id="SwoopInwithEmail" fill="#FFFFFF" fill-rule="nonzero"></path>
                        <g id="Swoop-in-button-final-Copy-5" transform="translate(8.000000, 13.000000)" fill="#FFFFFF">
                            <g id="Envelope-PERFECTION">
                                <path d="M30.879664,0.483525818 L27.2958844,12.6683764 L6.06170848,12.6683764 L9.64548808,0.483525818 L30.879664,0.483525818 Z M20.6900156,7.98345243 L24.0151585,11.1118672 C24.2366075,11.2712076 24.5043818,11.3350945 24.7626367,11.3042113 C25.001171,11.2756865 25.2315187,11.16673 25.4093832,10.9784029 C25.6032927,10.773087 25.7007635,10.5119311 25.6929154,10.2372474 C25.6858705,9.99067391 25.5925268,9.72746914 25.3840548,9.49129598 L22.4873162,6.7551419 L27.2279633,3.74733334 C27.4508348,3.57769209 27.5904288,3.33369851 27.6331195,3.07260085 C27.673702,2.82439791 27.627015,2.56091193 27.4817938,2.33175025 C27.324557,2.08362793 27.0816344,1.92272812 26.8159904,1.86316808 C26.5503464,1.80360804 26.261981,1.84538776 26.0138587,2.00262452 L18.0535878,7.04656401 L12.3728221,1.84775811 C12.046379,1.80196146 11.703181,1.90788303 11.4571164,2.16365844 C11.2534623,2.37534953 11.154893,2.64954695 11.1601599,2.9217351 C11.1654269,3.19392325 11.2745301,3.46410214 11.4862212,3.66775616 L14.3161157,6.39001727 L9.60310421,9.40407456 C9.38083706,9.57448153 9.24209582,9.81894366 9.20030678,10.0801743 C9.16057965,10.3285156 9.20817402,10.5918392 9.3541839,10.8204992 C9.5122745,11.0680784 9.75574997,11.2281404 10.0215976,11.2867849 C10.2874452,11.3454294 10.5756649,11.3026565 10.8232441,11.1445659 L15.8933138,7.90600909 L17.2624123,9.2184105 C17.4434784,9.36307599 17.6626662,9.44158768 17.8854969,9.45015084 C18.0927721,9.45811622 18.3031561,9.40569343 18.4887845,9.29000957 L20.6900156,7.98345243 Z" id="envelope" stroke="#FFFFFF" stroke-width="0.967051636"></path>
                                <g id="fast-lines" transform="translate(0.000000, 3.868207)">
                                    <polygon id="Rectangle" points="2.70774458 0 8.5100544 2.74315785e-15 8.12323375 1.35387229 2.32092393 1.35387229"></polygon>
                                    <polygon id="Rectangle-Copy" points="4.06161687 4.06161687 7.15618211 4.06161687 6.76936145 5.41548916 3.67479622 5.41548916"></polygon>
                                    <polygon id="Rectangle-Copy-2" points="0.386820655 4.06161687 2.70774458 4.06161687 2.32092393 5.41548916 -3.1640259e-14 5.41548916"></polygon>
                                </g>
                            </g>
                        </g>
                    </g>
                </g>
            </g>
        </g>
    </g>
</svg>