<?xml version="1.0" encoding="UTF-8"?>
<svg width="65px" height="70px" viewBox="0 0 65 70" version="1.1" xmlns="http://www.w3.org/2000/svg" xmlns:xlink="http://www.w3.org/1999/xlink">
    <!-- Generator: Sketch 63.1 (92452) - https://sketch.com -->
    <title>magic-message-sparkles</title>
    <desc>Created with Sketch.</desc>
    <g id="v6" stroke="none" stroke-width="1" fill="none" fill-rule="evenodd">
        <g id="magic-message-sparkles" fill-rule="nonzero">
            <path d="M19.2714215,57.0856861 C18.9829247,57.0856861 25.045496,32.3991952 25.045496,32.3991952 C25.1932337,31.9225583 25.5806743,31.5574097 26.0656743,31.4389426 C26.5492899,31.316294 27.0635606,31.4626332 27.4161646,31.8152372 L37.4061597,41.8052323 C37.698838,42.0979106 37.8493587,42.5020772 37.820088,42.9160055 C37.7908173,43.3285352 37.5845524,43.707627 37.2528561,43.9557071 L20.1271502,56.7999865 C19.8748886,56.9909096 19.5724629,57.0856861 19.2714215,57.0856861 Z" id="Path" fill="#0A4C36"></path>
            <path d="M52.084545,59.9399704 C51.7807208,59.9399704 51.4782951,59.842411 51.2288163,59.6542565 L5.57141345,25.4028449 C5.15748514,25.0934405 4.94425583,24.5861342 5.01254458,24.0746608 C5.079449,23.563173 5.41810984,23.1283371 5.89754397,22.9360154 L62.9832301,0.101740964 C63.4696287,-0.0905949838 64.024316,-0.0069644537 64.4256997,0.330312051 C64.8284821,0.664805629 65.0152379,1.19300521 64.9120983,1.70727589 L53.4838151,58.792962 C53.3876543,59.2737804 53.0517764,59.6709826 52.5932499,59.8465925 C52.428786,59.9093154 52.2559591,59.9399704 52.084545,59.9399704 Z" id="Path" fill="#C0E8DB"></path>
            <path d="M19.2728201,57.0856861 C19.1961683,57.0856861 19.1195165,57.080106 19.0428647,57.0675614 C18.3515856,56.9546744 17.8442794,56.3581718 17.8442794,55.6585439 L17.8442794,34.2514117 C17.8442794,33.7998496 18.0589073,33.3747753 18.4212729,33.1058018 L62.6626797,0.281532332 C63.2689297,-0.168631117 64.1162953,-0.068288752 64.6027082,0.504523294 C65.0891068,1.08011827 65.0445086,1.93306405 64.5023658,2.45569777 L25.2633492,40.1754074 L20.6246948,56.1100917 C20.4281916,56.6996299 19.8776715,57.0856861 19.2728201,57.0856861 Z" id="Path" fill="#13B47E"></path>
            <path d="M14.1291255,65.0033515 L15.9051255,61.4503515 C16.0975905,61.0654776 16.0222597,60.6006344 15.7180947,60.2962426 C15.4139297,59.9918508 14.9491428,59.9161735 14.5641255,60.1083515 L11.0111255,61.8853515 L7.45812552,60.1093515 C7.07263254,59.9125787 6.60430582,59.9861331 6.2976945,60.2916063 C5.99108318,60.5970795 5.91578768,61.0651294 6.11112552,61.4513515 L7.89312552,65.0033515 L6.11112552,68.5563515 C5.91188558,68.9429597 5.98537954,69.4140164 6.29292011,69.7215569 C6.60046068,70.0290975 7.07151738,70.1025915 7.45812552,69.9033515 L11.0111255,68.1223515 L14.5641255,69.9033515 C14.9491428,70.0955296 15.4139297,70.0198522 15.7180947,69.7154604 C16.0222597,69.4110686 16.0975905,68.9462254 15.9051255,68.5613515 L14.1291255,65.0033515 Z" id="Path" fill="#13B47E"></path>
            <path d="M9.71135151,34.2939603 C9.40720684,33.9895174 8.94239944,33.9137949 8.55735151,34.1059603 L5.00435151,35.8819603 L1.45135151,34.1059603 C1.06625312,33.9130238 0.600881566,33.9883511 0.296311987,34.2929207 C-0.00825759181,34.5974903 -0.0835849582,35.0628619 0.109351514,35.4479603 L1.88635151,38.9999603 L0.109351514,42.5529603 C-0.0874212786,42.9384532 -0.0138669001,43.40678 0.291606292,43.7133913 C0.597079484,44.0200026 1.06512943,44.0952981 1.45135151,43.8999603 L5.00435151,42.1189603 L8.55735151,43.8999603 C8.94236881,44.0921383 9.40715567,44.016461 9.71132066,43.7120691 C10.0154857,43.4076773 10.0908165,42.9428342 9.89835151,42.5579603 L8.12235151,38.9999603 L9.89835151,35.4469603 C10.0902846,35.062378 10.0149963,34.5981669 9.71135151,34.2939603 Z" id="Path" fill="#FFCE16"></path>
            <path d="M42.7181255,58.2973515 C42.4139808,57.9929087 41.9491734,57.9171861 41.5641255,58.1093515 L38.0111255,59.8853515 L34.4581255,58.1093515 C34.0726325,57.9125787 33.6043058,57.9861331 33.2976945,58.2916063 C32.9910832,58.5970795 32.9157877,59.0651294 33.1111255,59.4513515 L34.8931255,63.0033515 L33.1111255,66.5563515 C32.9118856,66.9429597 32.9853795,67.4140164 33.2929201,67.7215569 C33.6004607,68.0290975 34.0715174,68.1025915 34.4581255,67.9033515 L38.0111255,66.1223515 L41.5641255,67.9033515 C41.9491428,68.0955296 42.4139297,68.0198522 42.7180947,67.7154604 C43.0222597,67.4110686 43.0975905,66.9462254 42.9051255,66.5613515 L41.1291255,63.0033515 L42.9051255,59.4503515 C43.0970587,59.0657693 43.0217703,58.6015582 42.7181255,58.2973515 Z" id="Path" fill="#C0E8DB"></path>
        </g>
    </g>
</svg>