<?xml version="1.0" encoding="UTF-8"?>
<svg width="75px" height="61px" viewBox="0 0 75 61" version="1.1" xmlns="http://www.w3.org/2000/svg" xmlns:xlink="http://www.w3.org/1999/xlink">
    <!-- Generator: Sketch 63.1 (92452) - https://sketch.com -->
    <title>magic-link</title>
    <desc>Created with Sketch.</desc>
    <g id="v6" stroke="none" stroke-width="1" fill="none" fill-rule="evenodd">
        <g id="magic-link" fill-rule="nonzero">
            <path d="M58.6956522,60.3478261 L1.30434783,60.3478261 C0.583982609,60.3478261 0,59.7638435 0,59.0434783 L0,17.3043478 C0,16.5839826 0.583982609,16 1.30434783,16 L58.6956522,16 C59.4160174,16 60,16.5839826 60,17.3043478 L60,59.0434783 C60,59.7638435 59.4160174,60.3478261 58.6956522,60.3478261 Z" id="Path" fill="#B3B3B3"></path>
            <path d="M30,31.6521739 C30.3146217,31.6521739 30.6286043,31.7655348 30.8776304,31.9910043 L59.5732826,58.0779609 C59.9719696,58.440987 60.1063565,59.0116391 59.912113,59.513513 C59.7178565,60.0166391 59.2344652,60.3478261 58.6956522,60.3478261 L1.30434783,60.3478261 C0.765534783,60.3478261 0.282143478,60.0166391 0.0878869565,59.5135 C-0.106369565,59.0116261 0.0280173913,58.4409739 0.426717391,58.0779478 L29.1223696,31.9909913 C29.3713957,31.7655348 29.6853783,31.6521739 30,31.6521739 Z" id="Path" fill="#D6D6D6"></path>
            <path d="M30,44.6956522 C29.6853783,44.6956522 29.3713957,44.5822913 29.1223696,44.3568217 L0.426717391,18.2698652 C0.0280173913,17.9068391 -0.106356522,17.336187 0.0878869565,16.8343261 C0.282143478,16.331187 0.765534783,16 1.30434783,16 L58.6956522,16 C59.2344652,16 59.7178565,16.331187 59.912113,16.8343261 C60.1063696,17.3362 59.9719826,17.9068522 59.5732826,18.2698783 L30.8776304,44.3568348 C30.6286043,44.5822913 30.3146217,44.6956522 30,44.6956522 Z" id="Path" fill="#E6E6E6"></path>
            <g id="wand-copy-2" transform="translate(38.000000, 0.000000)">
                <path d="M34.1223515,8.00335151 L35.8983515,4.45035151 C36.0908165,4.06547759 36.0154857,3.60063443 35.7113207,3.29624262 C35.4071557,2.99185081 34.9423688,2.91617347 34.5573515,3.10835151 L31.0043515,4.88535151 L27.4513515,3.10935151 C27.0658585,2.91257872 26.5975318,2.9861331 26.2909205,3.29160629 C25.9843092,3.59707948 25.9090137,4.06512943 26.1043515,4.45135151 L27.8863515,8.00335151 L26.1043515,11.5563515 C25.9051116,11.9429597 25.9786055,12.4140164 26.2861461,12.7215569 C26.5936867,13.0290975 27.0647434,13.1025915 27.4513515,12.9033515 L31.0043515,11.1223515 L34.5573515,12.9033515 C34.9423688,13.0955296 35.4071557,13.0198522 35.7113207,12.7154604 C36.0154857,12.4110686 36.0908165,11.9462254 35.8983515,11.5613515 L34.1223515,8.00335151 Z" id="Path" fill="#13B47E"></path>
                <path d="M9.71135151,0.297351514 C9.40720684,-0.0070913418 8.94239944,-0.0828138638 8.55735151,0.109351514 L5.00435151,1.88535151 L1.45135151,0.109351514 C1.06625312,-0.0835849582 0.600881566,-0.00825759181 0.296311987,0.296311987 C-0.00825759181,0.600881566 -0.0835849582,1.06625312 0.109351514,1.45135151 L1.88635151,5.00335151 L0.109351514,8.55635151 C-0.0874212786,8.9418445 -0.0138669001,9.41017122 0.291606292,9.71678254 C0.597079484,10.0233939 1.06512943,10.0986894 1.45135151,9.90335151 L5.00435151,8.12235151 L8.55735151,9.90335151 C8.94236881,10.0955296 9.40715567,10.0198522 9.71132066,9.7154604 C10.0154857,9.41106859 10.0908165,8.94622544 9.89835151,8.56135151 L8.12235151,5.00335151 L9.89835151,1.45035151 C10.0902846,1.06576926 10.0149963,0.601558169 9.71135151,0.297351514 Z" id="Path" fill="#FFCE16"></path>
                <path d="M36.7113515,27.2973515 C36.4072068,26.9929087 35.9423994,26.9171861 35.5573515,27.1093515 L32.0043515,28.8853515 L28.4513515,27.1093515 C28.0658585,26.9125787 27.5975318,26.9861331 27.2909205,27.2916063 C26.9843092,27.5970795 26.9090137,28.0651294 27.1043515,28.4513515 L28.8863515,32.0033515 L27.1043515,35.5563515 C26.9051116,35.9429597 26.9786055,36.4140164 27.2861461,36.7215569 C27.5936867,37.0290975 28.0647434,37.1025915 28.4513515,36.9033515 L32.0043515,35.1223515 L35.5573515,36.9033515 C35.9423688,37.0955296 36.4071557,37.0198522 36.7113207,36.7154604 C37.0154857,36.4110686 37.0908165,35.9462254 36.8983515,35.5613515 L35.1223515,32.0033515 L36.8983515,28.4503515 C37.0902846,28.0657693 37.0149963,27.6015582 36.7113515,27.2973515 Z" id="Path" fill="#C0E8DB"></path>
            </g>
        </g>
    </g>
</svg>