<?xml version="1.0" encoding="UTF-8"?>
<svg width="58px" height="60px" viewBox="0 0 58 60" version="1.1" xmlns="http://www.w3.org/2000/svg" xmlns:xlink="http://www.w3.org/1999/xlink">
    <!-- Generator: Sketch 63.1 (92452) - https://sketch.com -->
    <title>quick-authorization</title>
    <desc>Created with Sketch.</desc>
    <g id="v6" stroke="none" stroke-width="1" fill="none" fill-rule="evenodd">
        <g id="quick-authorization" transform="translate(28.571429, 30.000000) scale(-1, 1) translate(-28.571429, -30.000000) " fill-rule="nonzero">
            <path d="M55.1828299,17.3431751 L1.57665228,1.57665228 L14.1898705,58.3361345 L23.6497842,36.2630025 L40.9929593,53.6061776 C43.6054722,56.2186904 47.8403602,56.2186904 50.452873,53.6061776 L50.452873,53.6061776 C53.0653859,50.9936648 53.0653859,46.7587767 50.452873,44.1462639 L33.1096979,26.8030888 L55.1828299,17.3431751 Z" id="Path" fill="#13B47E"></path>
            <path d="M14.1898705,59.9127867 C14.142571,59.9127867 14.0921181,59.9112101 14.0432419,59.9064801 C13.3605514,59.8418374 12.7992632,59.3467686 12.6494813,58.678268 L0.0362630025,1.91878583 C-0.083562571,1.37484079 0.0930224847,0.805669316 0.499798774,0.425696116 C0.909728367,0.0441462639 1.48993641,-0.0914458324 2.02126823,0.0646427436 L55.6274458,15.8311656 C56.2644134,16.0187872 56.7169126,16.586382 56.7563289,17.2501526 C56.7957452,17.9139232 56.4141953,18.5303943 55.8040309,18.7936952 L35.8719927,27.3359973 L51.5675662,43.0331474 C53.128452,44.5940332 53.9893041,46.6704842 53.9893041,48.8777974 C53.9893041,51.0851106 53.128452,53.1615617 51.5675662,54.7224474 C48.3433123,57.9451247 43.1025201,57.9451247 39.8782662,54.7224474 L24.1811161,39.0252973 L15.638814,58.9589121 C15.3897029,59.5406968 14.8158015,59.9127867 14.1898705,59.9127867 Z M23.6497842,34.6863502 C24.0644438,34.6863502 24.4664901,34.8503221 24.7644774,35.1483093 L42.1076525,52.4914844 C44.100541,54.4843729 47.3452914,54.4843729 49.3381799,52.4914844 C50.3030911,51.5249966 50.8359995,50.2416016 50.8359995,48.8762208 C50.8359995,47.5108399 50.3030911,46.2274449 49.3381799,45.2609571 L31.9950048,27.917782 C31.6260681,27.5488453 31.4620963,27.0190902 31.5614254,26.5051015 C31.6607545,25.9911129 32.007618,25.5591102 32.4900736,25.3541454 L50.534859,17.6190893 L3.69567295,3.84387826 L14.6675962,53.2198978 L22.2008408,35.6433782 C22.4073822,35.1624992 22.8378083,34.8156357 23.3502203,34.7163066 C23.4511261,34.6958101 23.5520318,34.6863502 23.6497842,34.6863502 Z" id="Shape" fill="#C0E8DB"></path>
        </g>
    </g>
</svg>