<?xml version="1.0" encoding="UTF-8"?>
<svg width="52px" height="60px" viewBox="0 0 52 60" version="1.1" xmlns="http://www.w3.org/2000/svg" xmlns:xlink="http://www.w3.org/1999/xlink">
    <!-- Generator: Sketch 63.1 (92452) - https://sketch.com -->
    <title>security</title>
    <desc>Created with Sketch.</desc>
    <g id="v6" stroke="none" stroke-width="1" fill="none" fill-rule="evenodd">
        <g id="security" fill-rule="nonzero">
            <path d="M50.7504545,5.48590909 L26.205,0.0313636364 C26.0099932,-0.0109214113 25.8081886,-0.0109214113 25.6131818,0.0313636364 L1.06772727,5.48590909 C0.443444616,5.62468501 -0.00052972833,6.17866066 -4.73525311e-07,6.81818182 L-4.73525311e-07,34.0909091 C-4.73525311e-07,48.4001049 11.5998951,60 25.9090909,60 C40.2182867,60 51.8181823,48.4001049 51.8181823,34.0909091 L51.8181823,6.81818182 C51.8187115,6.17866066 51.3747372,5.62468501 50.7504545,5.48590909 Z" id="Path" fill="#C0E8DB"></path>
            <path d="M50.6781818,5.46136364 L26.1327273,0.00681818182 C26.0583076,0.000695144359 25.9835106,0.000695144359 25.9090909,0.00681818182 L25.9090909,59.9713636 C40.1838233,59.9165837 51.7310039,48.3371024 51.7459091,34.0622727 L51.7459091,6.78954545 C51.7445233,6.1515567 51.3009701,5.59980602 50.6781818,5.46136364 Z" id="Path" fill="#13B47E"></path>
            <path d="M36.8181818,27.2727273 L32.7272727,27.2727273 L32.7272727,20.4545455 C32.7272727,16.6889676 29.6746687,13.6363636 25.9090909,13.6363636 C22.1435131,13.6363636 19.0909091,16.6889676 19.0909091,20.4545455 L19.0909091,27.2727273 L15,27.2727273 C14.2468844,27.2727273 13.6363636,27.8832481 13.6363636,28.6363636 L13.6363636,42.2727273 C13.6363636,43.0258428 14.2468844,43.6363636 15,43.6363636 L36.8181818,43.6363636 C37.5712974,43.6363636 38.1818182,43.0258428 38.1818182,42.2727273 L38.1818182,28.6363636 C38.1818182,27.8832481 37.5712974,27.2727273 36.8181818,27.2727273 Z M30,27.2727273 L21.8181818,27.2727273 L21.8181818,20.4545455 C21.8181818,18.1951988 23.6497442,16.3636364 25.9090909,16.3636364 C28.1684376,16.3636364 30,18.1951988 30,20.4545455 L30,27.2727273 Z" id="Shape" fill="#0A4C36"></path>
        </g>
    </g>
</svg>