<svg width="20" height="20" viewBox="0 0 20 20" fill="none" xmlns="http://www.w3.org/2000/svg">
<path d="M20 8.17143V1.42857C20 0.628571 19.4286 0 18.6858 0H7.31433L20 8.17143Z" fill="#0D5F41"/>
<path d="M16.8571 15.8286L18.8571 14.5143C19.4857 14.1143 20 13.1429 20 12.4V11.4857C20 11.2571 20 10.9714 20 10.6857L3.42857 0H1.31429C0.571429 0 0 0.628571 0 1.42857V4.97143L16.8571 15.8286Z" fill="#29AE7D"/>
<path d="M0 7.48572V8.68572C0 9.48572 0 10.7429 0 11.4857V12.4C0 13.2 0.514286 14.1143 1.14286 14.5143L8.85714 19.4857C9.48571 19.8857 10.5143 19.8857 11.1429 19.4857L14.9143 17.0857L0 7.48572Z" fill="#8CCAB1"/>
</svg>
