<svg width="382" height="82" viewBox="0 0 382 82" fill="none" xmlns="http://www.w3.org/2000/svg">
<path d="M373.951 80.248H8.04826C4.20743 80.248 1.13477 77.1754 1.13477 73.3345V8.04047C1.13477 4.19965 4.20743 1.12695 8.04826 1.12695H373.951C377.792 1.12695 380.865 4.19965 380.865 8.04047V73.3345C380.865 77.1754 377.792 80.248 373.951 80.248Z" fill="white" stroke="#403E3E" stroke-width="1.58498" stroke-miterlimit="10"/>
<mask id="mask0" mask-type="alpha" maskUnits="userSpaceOnUse" x="1" y="1" width="380" height="80">
<path d="M373.951 79.4555H8.04826C4.6451 79.4555 1.92726 76.7377 1.92726 73.3345V8.04047C1.92726 4.63732 4.64511 1.91944 8.04826 1.91944H373.951C377.354 1.91944 380.072 4.63732 380.072 8.04047V73.3345C380.072 76.7377 377.354 79.4555 373.951 79.4555Z" fill="white" stroke="#403E3E" stroke-width="1.58498" stroke-miterlimit="10"/>
</mask>
<g mask="url(#mask0)">
<path d="M374.975 80.2485H81.0234V1.38354H374.719C378.047 1.38354 380.608 3.94407 380.608 7.27278V74.1032C380.864 77.4319 378.047 80.2485 374.975 80.2485Z" fill="#29AE7D"/>
</g>
<path d="M373.951 80.248H8.04826C4.20743 80.248 1.13477 77.1754 1.13477 73.3345V8.04047C1.13477 4.19965 4.20743 1.12695 8.04826 1.12695H373.951C377.792 1.12695 380.865 4.19965 380.865 8.04047V73.3345C380.865 77.1754 377.792 80.248 373.951 80.248Z" stroke="#403E3E" stroke-width="1.58498" stroke-miterlimit="10"/>
<path d="M65.9167 36.7191V21.3558C65.9167 19.5634 64.6364 18.0271 62.844 18.0271H36.9824L65.9167 36.7191Z" fill="#0D5F41"/>
<path d="M58.7471 54.3872L63.3561 51.3146C64.8925 50.2903 65.9167 48.2419 65.9167 46.4495V44.401C65.9167 43.8889 65.9167 43.1208 65.9167 42.6087L28.0205 18.2834H23.4115C21.8752 18.2834 20.3389 19.8197 20.3389 21.6121V29.8059L58.7471 54.3872Z" fill="#29AE7D"/>
<path d="M20.3389 35.1831V37.9997C20.3389 39.7921 20.3389 42.6087 20.3389 44.4011V46.4496C20.3389 48.242 21.6191 50.2904 22.8994 51.3146L40.5672 62.581C42.1036 63.6053 44.4081 63.6053 45.6883 62.581L54.3942 56.9478L20.3389 35.1831Z" fill="#8CCAB1"/>
<path d="M120.705 34.0314C120.62 34.1722 120.531 34.2802 120.437 34.3553C120.343 34.421 120.221 34.4539 120.071 34.4539C119.912 34.4539 119.724 34.3741 119.508 34.2145C119.301 34.0549 119.034 33.8812 118.705 33.6934C118.386 33.4962 117.996 33.3179 117.536 33.1583C117.086 32.9986 116.536 32.9188 115.889 32.9188C115.278 32.9188 114.738 33.0033 114.269 33.1723C113.8 33.3319 113.405 33.5526 113.086 33.8342C112.776 34.1159 112.541 34.4492 112.382 34.8341C112.222 35.2097 112.142 35.6181 112.142 36.0594C112.142 36.6227 112.279 37.0921 112.551 37.4677C112.833 37.8338 113.199 38.1483 113.649 38.4112C114.109 38.6741 114.626 38.9041 115.198 39.1013C115.781 39.2891 116.372 39.4862 116.973 39.6928C117.583 39.8993 118.175 40.134 118.747 40.3969C119.33 40.6504 119.846 40.9743 120.297 41.3687C120.757 41.763 121.123 42.2465 121.395 42.8192C121.677 43.3919 121.818 44.0961 121.818 44.9317C121.818 45.8142 121.667 46.6451 121.367 47.4244C121.066 48.1942 120.625 48.8655 120.043 49.4382C119.47 50.011 118.761 50.4616 117.917 50.7902C117.081 51.1188 116.128 51.2831 115.058 51.2831C113.753 51.2831 112.56 51.0484 111.481 50.579C110.41 50.1001 109.495 49.457 108.734 48.6496L109.523 47.354C109.598 47.2507 109.687 47.1662 109.791 47.1005C109.903 47.0253 110.025 46.9878 110.157 46.9878C110.354 46.9878 110.579 47.0958 110.833 47.3117C111.086 47.5183 111.401 47.7483 111.776 48.0018C112.161 48.2553 112.621 48.49 113.156 48.7059C113.701 48.9125 114.363 49.0157 115.142 49.0157C115.79 49.0157 116.367 48.9266 116.874 48.7482C117.381 48.5698 117.809 48.321 118.156 48.0018C118.513 47.6732 118.785 47.2835 118.973 46.8329C119.161 46.3822 119.254 45.8799 119.254 45.326C119.254 44.7157 119.114 44.2181 118.832 43.8332C118.56 43.4389 118.198 43.1103 117.748 42.8474C117.297 42.5845 116.78 42.3639 116.198 42.1855C115.626 41.9977 115.034 41.8099 114.424 41.6222C113.823 41.425 113.232 41.1997 112.649 40.9462C112.077 40.6927 111.565 40.3641 111.114 39.9604C110.664 39.5566 110.298 39.0543 110.016 38.4535C109.744 37.8432 109.608 37.0921 109.608 36.2002C109.608 35.4866 109.744 34.7966 110.016 34.13C110.298 33.4634 110.701 32.8719 111.227 32.3555C111.753 31.8391 112.401 31.426 113.171 31.1162C113.95 30.8064 114.842 30.6515 115.846 30.6515C116.973 30.6515 118.001 30.8299 118.93 31.1866C119.86 31.5434 120.672 32.0598 121.367 32.7358L120.705 34.0314Z" fill="white"/>
<path d="M123.05 36.7917H125.022C125.229 36.7917 125.398 36.8433 125.529 36.9466C125.66 37.0499 125.75 37.1719 125.797 37.3127L128.529 46.4949C128.604 46.8329 128.674 47.1615 128.74 47.4807C128.806 47.7905 128.862 48.105 128.909 48.4243C128.984 48.105 129.069 47.7905 129.162 47.4807C129.256 47.1615 129.355 46.8329 129.458 46.4949L132.472 37.2564C132.519 37.1156 132.599 36.9982 132.711 36.9043C132.833 36.8104 132.984 36.7635 133.162 36.7635H134.246C134.434 36.7635 134.589 36.8104 134.711 36.9043C134.833 36.9982 134.918 37.1156 134.965 37.2564L137.908 46.4949C138.011 46.8235 138.101 47.1474 138.176 47.4666C138.26 47.7858 138.34 48.1004 138.415 48.4102C138.462 48.1004 138.523 47.7764 138.598 47.4384C138.673 47.1005 138.753 46.7859 138.838 46.4949L141.626 37.3127C141.673 37.1625 141.762 37.0405 141.894 36.9466C142.025 36.8433 142.18 36.7917 142.358 36.7917H144.245L139.626 51.0578H137.64C137.396 51.0578 137.227 50.8982 137.133 50.579L133.979 40.9039C133.904 40.688 133.843 40.472 133.796 40.2561C133.749 40.0308 133.702 39.8101 133.655 39.5942C133.608 39.8101 133.561 40.0308 133.514 40.2561C133.467 40.4814 133.406 40.7021 133.331 40.918L130.134 50.579C130.031 50.8982 129.838 51.0578 129.557 51.0578H127.67L123.05 36.7917Z" fill="white"/>
<path d="M152.248 36.5663C153.29 36.5663 154.229 36.74 155.065 37.0874C155.91 37.4348 156.623 37.9277 157.205 38.5661C157.797 39.2046 158.247 39.9791 158.557 40.8898C158.877 41.7912 159.036 42.8004 159.036 43.9177C159.036 45.0443 158.877 46.0583 158.557 46.9596C158.247 47.8609 157.797 48.6308 157.205 49.2692C156.623 49.9077 155.91 50.4006 155.065 50.748C154.229 51.086 153.29 51.255 152.248 51.255C151.206 51.255 150.262 51.086 149.417 50.748C148.582 50.4006 147.868 49.9077 147.277 49.2692C146.685 48.6308 146.23 47.8609 145.911 46.9596C145.592 46.0583 145.432 45.0443 145.432 43.9177C145.432 42.8004 145.592 41.7912 145.911 40.8898C146.23 39.9791 146.685 39.2046 147.277 38.5661C147.868 37.9277 148.582 37.4348 149.417 37.0874C150.262 36.74 151.206 36.5663 152.248 36.5663ZM152.248 49.2974C153.656 49.2974 154.708 48.828 155.403 47.8891C156.097 46.9408 156.445 45.6217 156.445 43.9318C156.445 42.2324 156.097 40.9086 155.403 39.9604C154.708 39.0121 153.656 38.538 152.248 38.538C151.535 38.538 150.915 38.66 150.389 38.9041C149.863 39.1482 149.422 39.5003 149.065 39.9604C148.718 40.4204 148.455 40.9884 148.277 41.6644C148.108 42.331 148.023 43.0868 148.023 43.9318C148.023 44.7768 148.108 45.5325 148.277 46.1991C148.455 46.8657 148.718 47.4291 149.065 47.8891C149.422 48.3398 149.863 48.6871 150.389 48.9313C150.915 49.1754 151.535 49.2974 152.248 49.2974Z" fill="white"/>
<path d="M167.899 36.5663C168.941 36.5663 169.88 36.74 170.716 37.0874C171.561 37.4348 172.274 37.9277 172.856 38.5661C173.448 39.2046 173.898 39.9791 174.208 40.8898C174.527 41.7912 174.687 42.8004 174.687 43.9177C174.687 45.0443 174.527 46.0583 174.208 46.9596C173.898 47.8609 173.448 48.6308 172.856 49.2692C172.274 49.9077 171.561 50.4006 170.716 50.748C169.88 51.086 168.941 51.255 167.899 51.255C166.857 51.255 165.913 51.086 165.068 50.748C164.233 50.4006 163.519 49.9077 162.928 49.2692C162.336 48.6308 161.881 47.8609 161.562 46.9596C161.242 46.0583 161.083 45.0443 161.083 43.9177C161.083 42.8004 161.242 41.7912 161.562 40.8898C161.881 39.9791 162.336 39.2046 162.928 38.5661C163.519 37.9277 164.233 37.4348 165.068 37.0874C165.913 36.74 166.857 36.5663 167.899 36.5663ZM167.899 49.2974C169.307 49.2974 170.359 48.828 171.054 47.8891C171.748 46.9408 172.096 45.6217 172.096 43.9318C172.096 42.2324 171.748 40.9086 171.054 39.9604C170.359 39.0121 169.307 38.538 167.899 38.538C167.185 38.538 166.566 38.66 166.04 38.9041C165.514 39.1482 165.073 39.5003 164.716 39.9604C164.369 40.4204 164.106 40.9884 163.928 41.6644C163.759 42.331 163.674 43.0868 163.674 43.9318C163.674 44.7768 163.759 45.5325 163.928 46.1991C164.106 46.8657 164.369 47.4291 164.716 47.8891C165.073 48.3398 165.514 48.6871 166.04 48.9313C166.566 49.1754 167.185 49.2974 167.899 49.2974Z" fill="white"/>
<path d="M177.776 55.8883V36.7917H179.269C179.625 36.7917 179.851 36.9654 179.945 37.3127L180.156 39.0027C180.766 38.261 181.461 37.6648 182.24 37.2142C183.029 36.7635 183.935 36.5382 184.958 36.5382C185.775 36.5382 186.517 36.6978 187.183 37.017C187.85 37.3268 188.418 37.7916 188.887 38.4112C189.357 39.0215 189.718 39.782 189.972 40.6927C190.225 41.6034 190.352 42.6502 190.352 43.8332C190.352 44.8847 190.211 45.8658 189.929 46.7765C189.648 47.6779 189.244 48.4618 188.718 49.1284C188.193 49.7856 187.545 50.3067 186.775 50.6916C186.014 51.0672 185.155 51.255 184.198 51.255C183.315 51.255 182.559 51.1094 181.93 50.8184C181.311 50.5273 180.761 50.1142 180.283 49.5791V55.8883H177.776ZM184.127 38.5661C183.31 38.5661 182.592 38.7539 181.973 39.1295C181.362 39.505 180.799 40.0355 180.283 40.7208V47.6215C180.743 48.2412 181.245 48.6778 181.789 48.9313C182.343 49.1847 182.958 49.3115 183.634 49.3115C184.958 49.3115 185.977 48.8374 186.69 47.8891C187.404 46.9408 187.761 45.5889 187.761 43.8332C187.761 42.9037 187.676 42.1057 187.507 41.4391C187.348 40.7725 187.113 40.2279 186.803 39.8054C186.493 39.3736 186.113 39.059 185.662 38.8619C185.212 38.6647 184.7 38.5661 184.127 38.5661Z" fill="white"/>
<path d="M202.396 51.0578H199.664V30.8768H202.396V51.0578Z" fill="white"/>
<path d="M207.4 51.0578V36.7917H208.892C209.249 36.7917 209.475 36.9654 209.568 37.3127L209.766 38.8619C210.385 38.1765 211.075 37.6226 211.836 37.2001C212.606 36.7776 213.493 36.5663 214.498 36.5663C215.277 36.5663 215.962 36.6978 216.554 36.9607C217.155 37.2142 217.652 37.5803 218.046 38.0591C218.45 38.5286 218.755 39.0966 218.962 39.7632C219.168 40.4298 219.272 41.1668 219.272 41.9742V51.0578H216.765V41.9742C216.765 40.8945 216.516 40.0589 216.018 39.4674C215.53 38.8666 214.779 38.5661 213.765 38.5661C213.024 38.5661 212.329 38.7445 211.681 39.1013C211.042 39.4581 210.451 39.9416 209.906 40.5518V51.0578H207.4Z" fill="white"/>
<path d="M226.638 36.7917H228.609C228.816 36.7917 228.985 36.8433 229.116 36.9466C229.248 37.0499 229.337 37.1719 229.384 37.3127L232.116 46.4949C232.191 46.8329 232.262 47.1615 232.327 47.4807C232.393 47.7905 232.449 48.105 232.496 48.4243C232.571 48.105 232.656 47.7905 232.75 47.4807C232.844 47.1615 232.942 46.8329 233.046 46.4949L236.059 37.2564C236.106 37.1156 236.186 36.9982 236.299 36.9043C236.421 36.8104 236.571 36.7635 236.749 36.7635H237.834C238.022 36.7635 238.176 36.8104 238.299 36.9043C238.421 36.9982 238.505 37.1156 238.552 37.2564L241.495 46.4949C241.599 46.8235 241.688 47.1474 241.763 47.4666C241.847 47.7858 241.927 48.1004 242.002 48.4102C242.049 48.1004 242.11 47.7764 242.185 47.4384C242.261 47.1005 242.34 46.7859 242.425 46.4949L245.213 37.3127C245.26 37.1625 245.349 37.0405 245.481 36.9466C245.612 36.8433 245.767 36.7917 245.946 36.7917H247.833L243.214 51.0578H241.228C240.984 51.0578 240.815 50.8982 240.721 50.579L237.566 40.9039C237.491 40.688 237.43 40.472 237.383 40.2561C237.336 40.0308 237.289 39.8101 237.242 39.5942C237.195 39.8101 237.148 40.0308 237.101 40.2561C237.055 40.4814 236.993 40.7021 236.918 40.918L233.722 50.579C233.618 50.8982 233.426 51.0578 233.144 51.0578H231.257L226.638 36.7917Z" fill="white"/>
<path d="M252.85 36.7917V51.0578H250.343V36.7917H252.85ZM253.413 32.3133C253.413 32.5574 253.361 32.7874 253.258 33.0033C253.164 33.2099 253.033 33.3977 252.864 33.5667C252.704 33.7263 252.517 33.853 252.301 33.9469C252.085 34.0408 251.855 34.0877 251.611 34.0877C251.366 34.0877 251.136 34.0408 250.92 33.9469C250.714 33.853 250.526 33.7263 250.357 33.5667C250.198 33.3977 250.071 33.2099 249.977 33.0033C249.883 32.7874 249.836 32.5574 249.836 32.3133C249.836 32.0692 249.883 31.8391 249.977 31.6232C250.071 31.3979 250.198 31.2054 250.357 31.0458C250.526 30.8768 250.714 30.7454 250.92 30.6515C251.136 30.5576 251.366 30.5106 251.611 30.5106C251.855 30.5106 252.085 30.5576 252.301 30.6515C252.517 30.7454 252.704 30.8768 252.864 31.0458C253.033 31.2054 253.164 31.3979 253.258 31.6232C253.361 31.8391 253.413 32.0692 253.413 32.3133Z" fill="white"/>
<path d="M261.591 51.2831C260.465 51.2831 259.596 50.9686 258.986 50.3396C258.385 49.7105 258.085 48.8045 258.085 47.6215V38.89H256.367C256.216 38.89 256.09 38.8478 255.986 38.7633C255.883 38.6694 255.831 38.5286 255.831 38.3408V37.3409L258.169 37.0452L258.747 32.6372C258.765 32.4963 258.826 32.3837 258.93 32.2992C259.033 32.2053 259.164 32.1584 259.324 32.1584H260.592V37.0733H264.676V38.89H260.592V47.4525C260.592 48.0534 260.737 48.4994 261.028 48.7904C261.319 49.0815 261.695 49.227 262.155 49.227C262.418 49.227 262.643 49.1941 262.831 49.1284C263.028 49.0533 263.197 48.9735 263.338 48.889C263.479 48.8045 263.596 48.7294 263.69 48.6637C263.793 48.5886 263.882 48.551 263.957 48.551C264.089 48.551 264.206 48.6308 264.309 48.7904L265.042 49.9875C264.61 50.3912 264.089 50.7104 263.479 50.9451C262.868 51.1705 262.239 51.2831 261.591 51.2831Z" fill="white"/>
<path d="M267.775 51.0578V30.3135H270.282V38.707C270.892 38.0591 271.568 37.5428 272.31 37.1578C273.052 36.7635 273.906 36.5663 274.873 36.5663C275.652 36.5663 276.338 36.6978 276.929 36.9607C277.53 37.2142 278.028 37.5803 278.422 38.0591C278.826 38.5286 279.131 39.0966 279.337 39.7632C279.544 40.4298 279.647 41.1668 279.647 41.9742V51.0578H277.14V41.9742C277.14 40.8945 276.892 40.0589 276.394 39.4674C275.906 38.8666 275.155 38.5661 274.141 38.5661C273.399 38.5661 272.704 38.7445 272.056 39.1013C271.418 39.4581 270.827 39.9416 270.282 40.5518V51.0578H267.775Z" fill="white"/>
<path d="M301.702 30.8768V33.1019H292.013V39.8054H299.857V41.9461H292.013V48.8327H301.702V51.0578H289.267V30.8768H301.702Z" fill="white"/>
<path d="M305.238 51.0578V36.7917H306.731C307.088 36.7917 307.313 36.9654 307.407 37.3127L307.59 38.7774C308.116 38.1296 308.703 37.5991 309.351 37.186C310.008 36.7729 310.768 36.5663 311.632 36.5663C312.599 36.5663 313.378 36.8339 313.97 37.3691C314.571 37.9042 315.003 38.6272 315.265 39.5379C315.463 39.0215 315.721 38.5755 316.04 38.2C316.369 37.8244 316.735 37.5146 317.138 37.2705C317.542 37.0264 317.969 36.848 318.42 36.7353C318.88 36.6227 319.345 36.5663 319.814 36.5663C320.565 36.5663 321.232 36.6884 321.814 36.9325C322.405 37.1672 322.903 37.5146 323.307 37.9746C323.72 38.4347 324.034 39.0027 324.25 39.6787C324.466 40.3453 324.574 41.1105 324.574 41.9742V51.0578H322.068V41.9742C322.068 40.857 321.823 40.012 321.335 39.4393C320.847 38.8572 320.138 38.5661 319.209 38.5661C318.796 38.5661 318.401 38.6412 318.026 38.7915C317.66 38.9323 317.336 39.1435 317.054 39.4252C316.772 39.7069 316.547 40.0636 316.378 40.4955C316.218 40.918 316.139 41.4109 316.139 41.9742V51.0578H313.632V41.9742C313.632 40.8288 313.402 39.9744 312.942 39.4111C312.482 38.8478 311.81 38.5661 310.928 38.5661C310.308 38.5661 309.731 38.7351 309.196 39.0731C308.67 39.4017 308.186 39.8524 307.745 40.4251V51.0578H305.238Z" fill="white"/>
<path d="M338.849 51.0578H337.736C337.492 51.0578 337.295 51.0202 337.144 50.9451C336.994 50.87 336.896 50.7104 336.849 50.4663L336.567 49.1425C336.192 49.4805 335.825 49.7856 335.469 50.0579C335.112 50.3208 334.736 50.5461 334.342 50.7339C333.948 50.9123 333.525 51.0484 333.074 51.1423C332.633 51.2362 332.14 51.2831 331.596 51.2831C331.042 51.2831 330.521 51.208 330.033 51.0578C329.554 50.8982 329.136 50.6635 328.779 50.3536C328.422 50.0438 328.136 49.6542 327.92 49.1847C327.714 48.7059 327.61 48.1426 327.61 47.4948C327.61 46.9315 327.765 46.3916 328.075 45.8752C328.385 45.3495 328.882 44.8847 329.568 44.481C330.263 44.0773 331.169 43.7487 332.286 43.4952C333.403 43.2323 334.769 43.0821 336.384 43.0445V41.932C336.384 40.8241 336.145 39.9885 335.666 39.4252C335.196 38.8525 334.497 38.5661 333.567 38.5661C332.957 38.5661 332.441 38.6459 332.018 38.8055C331.605 38.9558 331.244 39.1295 330.934 39.3266C330.633 39.5144 330.371 39.6881 330.145 39.8477C329.929 39.9979 329.713 40.073 329.497 40.073C329.328 40.073 329.178 40.0308 329.047 39.9463C328.925 39.8524 328.826 39.7397 328.751 39.6083L328.3 38.8055C329.089 38.0451 329.939 37.477 330.849 37.1015C331.76 36.726 332.769 36.5382 333.877 36.5382C334.675 36.5382 335.384 36.6696 336.004 36.9325C336.623 37.1954 337.144 37.5615 337.567 38.031C337.989 38.5004 338.309 39.0684 338.525 39.735C338.741 40.4016 338.849 41.1339 338.849 41.932V51.0578ZM332.342 49.5227C332.783 49.5227 333.187 49.4805 333.553 49.396C333.919 49.3021 334.262 49.1754 334.581 49.0157C334.91 48.8468 335.22 48.6449 335.511 48.4102C335.811 48.1755 336.102 47.9079 336.384 47.6074V44.6359C335.229 44.6735 334.248 44.7674 333.441 44.9176C332.633 45.0584 331.976 45.2462 331.469 45.4809C330.962 45.7156 330.591 45.9926 330.356 46.3118C330.131 46.631 330.018 46.9878 330.018 47.3821C330.018 47.7577 330.079 48.0816 330.202 48.3538C330.324 48.6261 330.488 48.8514 330.694 49.0298C330.901 49.1988 331.145 49.3256 331.427 49.4101C331.708 49.4852 332.014 49.5227 332.342 49.5227Z" fill="white"/>
<path d="M345.435 36.7917V51.0578H342.928V36.7917H345.435ZM345.998 32.3133C345.998 32.5574 345.946 32.7874 345.843 33.0033C345.749 33.2099 345.618 33.3977 345.449 33.5667C345.289 33.7263 345.101 33.853 344.886 33.9469C344.67 34.0408 344.44 34.0877 344.195 34.0877C343.951 34.0877 343.721 34.0408 343.505 33.9469C343.299 33.853 343.111 33.7263 342.942 33.5667C342.782 33.3977 342.656 33.2099 342.562 33.0033C342.468 32.7874 342.421 32.5574 342.421 32.3133C342.421 32.0692 342.468 31.8391 342.562 31.6232C342.656 31.3979 342.782 31.2054 342.942 31.0458C343.111 30.8768 343.299 30.7454 343.505 30.6515C343.721 30.5576 343.951 30.5106 344.195 30.5106C344.44 30.5106 344.67 30.5576 344.886 30.6515C345.101 30.7454 345.289 30.8768 345.449 31.0458C345.618 31.2054 345.749 31.3979 345.843 31.6232C345.946 31.8391 345.998 32.0692 345.998 32.3133Z" fill="white"/>
<path d="M352.641 30.3135V51.0578H350.135V30.3135H352.641Z" fill="white"/>
</svg>
