<?xml version="1.0" encoding="UTF-8"?>
<svg width="571px" height="98px" viewBox="0 0 571 98" version="1.1" xmlns="http://www.w3.org/2000/svg" xmlns:xlink="http://www.w3.org/1999/xlink">
    <!-- Generator: Sketch 62 (91390) - https://sketch.com -->
    <title>logo - outlined</title>
    <desc>Created with Sketch.</desc>
    <g id="final" stroke="none" stroke-width="1" fill="none" fill-rule="evenodd">
        <g id="Final-FINAL" transform="translate(-604.000000, -595.000000)">
            <g id="logo---outlined" transform="translate(604.000000, 538.000000)">
                <path d="M235.6572,133.408 C241.946267,133.408 247.367067,132.469333 251.9196,130.592 C256.472133,128.714667 259.898267,126.133333 262.198,122.848 C264.497733,119.562667 265.6476,115.901867 265.6476,111.8656 C265.6476,106.421333 263.793733,101.962667 260.086,98.4896 C256.378267,95.0165333 250.065733,92.3413333 241.1484,90.464 C235.422533,89.2437333 231.104667,88.0469333 228.1948,86.8736 C225.284933,85.7002667 223.313733,84.4330667 222.2812,83.072 C221.248667,81.7109333 220.7324,80.0448 220.7324,78.0736 C220.7324,74.8821333 221.952667,72.3242667 224.3932,70.4 C226.833733,68.4757333 230.353733,67.5136 234.9532,67.5136 C238.0508,67.5136 240.632133,67.8656 242.6972,68.5696 C244.762267,69.2736 246.334533,70.1184 247.414,71.104 C248.493467,72.0896 249.831067,73.4741333 251.4268,75.2576 C251.99,76.2901333 252.928667,76.8064 254.2428,76.8064 L254.2428,76.8064 L259.5932,76.8064 C260.438,76.8064 261.165467,76.5248 261.7756,75.9616 C262.385733,75.3984 262.6908,74.6944 262.6908,73.8496 C262.6908,72.0661333 261.6348,69.8602667 259.5228,67.232 C257.4108,64.6037333 254.266267,62.304 250.0892,60.3328 C245.912133,58.3616 240.8668,57.376 234.9532,57.376 C229.3212,57.376 224.4636,58.3850667 220.3804,60.4032 C216.2972,62.4213333 213.223067,65.0496 211.158,68.288 C209.092933,71.5264 208.0604,74.8821333 208.0604,78.3552 C208.0604,83.7056 209.75,88.0704 213.1292,91.4496 C216.5084,94.8288 222.2812,97.4101333 230.4476,99.1936 C236.455067,100.507733 240.984133,101.728 244.0348,102.8544 C247.085467,103.9808 249.267867,105.248 250.582,106.656 C251.896133,108.064 252.5532,109.941333 252.5532,112.288 C252.5532,115.854933 251.027867,118.577067 247.9772,120.4544 C244.926533,122.331733 240.8668,123.2704 235.798,123.2704 C231.2924,123.2704 227.702,122.519467 225.0268,121.0176 C222.3516,119.515733 219.934533,117.450667 217.7756,114.8224 C217.2124,114.165333 216.766533,113.742933 216.438,113.5552 C216.109467,113.367467 215.6636,113.2736 215.1004,113.2736 L215.1004,113.2736 L209.1868,113.2736 C208.435867,113.2736 207.731867,113.531733 207.0748,114.048 C206.417733,114.564267 206.0892,115.291733 206.0892,116.2304 C206.0892,118.013867 207.168667,120.266667 209.3276,122.9888 C211.486533,125.710933 214.795333,128.128 219.254,130.24 C223.712667,132.352 229.1804,133.408 235.6572,133.408 Z M301.6902,132 C303.787533,132 305.158867,130.991667 305.8042,128.975 L305.8042,128.975 L319.9612,85.173 L334.1182,128.975 C334.763533,130.991667 336.134867,132 338.2322,132 L338.2322,132 L342.5882,132 C343.717533,132 344.564533,131.758 345.1292,131.274 C345.693867,130.79 346.137533,130.023667 346.4602,128.975 L346.4602,128.975 L363.6422,72.831 L363.8842,71.621 C363.8842,70.895 363.6422,70.29 363.1582,69.806 C362.6742,69.322 362.0692,69.08 361.3432,69.08 L361.3432,69.08 L356.3822,69.08 C355.575533,69.08 354.910033,69.3018333 354.3857,69.7455 C353.861367,70.1891667 353.558867,70.6126667 353.4782,71.016 L353.4782,71.016 L339.8052,117.238 L325.2852,71.621 C325.123867,70.9756667 324.760867,70.3908333 324.1962,69.8665 C323.631533,69.3421667 322.8652,69.08 321.8972,69.08 L321.8972,69.08 L318.0252,69.08 C317.0572,69.08 316.290867,69.3421667 315.7262,69.8665 C315.161533,70.3908333 314.798533,70.9756667 314.6372,71.621 L314.6372,71.621 L300.1172,117.238 L286.4442,71.016 C286.363533,70.6126667 286.061033,70.1891667 285.5367,69.7455 C285.012367,69.3018333 284.346867,69.08 283.5402,69.08 L283.5402,69.08 L278.5792,69.08 C277.8532,69.08 277.2482,69.322 276.7642,69.806 C276.2802,70.29 276.0382,70.895 276.0382,71.621 L276.0382,71.621 L276.2802,72.831 L293.4622,128.975 C293.784867,130.023667 294.228533,130.79 294.7932,131.274 C295.357867,131.758 296.204867,132 297.3342,132 L297.3342,132 L301.6902,132 Z M401.2732,133.21 C410.146533,133.21 416.983033,130.709333 421.7827,125.708 C426.582367,120.706667 429.143533,114.051667 429.4662,105.743 C429.627533,103.968333 429.7082,102.234 429.7082,100.54 C429.7082,98.846 429.627533,97.1116667 429.4662,95.337 C429.143533,87.0283333 426.542033,80.3733333 421.6617,75.372 C416.781367,70.3706667 409.9852,67.87 401.2732,67.87 C392.5612,67.87 385.765033,70.3706667 380.8847,75.372 C376.004367,80.3733333 373.402867,87.0283333 373.0802,95.337 L373.0802,95.337 L372.9592,100.54 L373.0802,105.743 C373.402867,114.051667 375.964033,120.706667 380.7637,125.708 C385.563367,130.709333 392.399867,133.21 401.2732,133.21 Z M401.2732,124.135 C396.110533,124.135 392.0167,122.5015 388.9917,119.2345 C385.9667,115.9675 384.3332,111.268667 384.0912,105.138 L384.0912,105.138 L383.9702,100.54 L384.0912,95.942 C384.3332,89.8113333 385.9667,85.1125 388.9917,81.8455 C392.0167,78.5785 396.110533,76.945 401.2732,76.945 C406.435867,76.945 410.5297,78.5785 413.5547,81.8455 C416.5797,85.1125 418.2132,89.8113333 418.4552,95.942 C418.535867,96.7486667 418.5762,98.2813333 418.5762,100.54 C418.5762,102.798667 418.535867,104.331333 418.4552,105.138 C418.2132,111.268667 416.5797,115.9675 413.5547,119.2345 C410.5297,122.5015 406.435867,124.135 401.2732,124.135 Z M470.4852,133.21 C479.358533,133.21 486.195033,130.709333 490.9947,125.708 C495.794367,120.706667 498.355533,114.051667 498.6782,105.743 C498.839533,103.968333 498.9202,102.234 498.9202,100.54 C498.9202,98.846 498.839533,97.1116667 498.6782,95.337 C498.355533,87.0283333 495.754033,80.3733333 490.8737,75.372 C485.993367,70.3706667 479.1972,67.87 470.4852,67.87 C461.7732,67.87 454.977033,70.3706667 450.0967,75.372 C445.216367,80.3733333 442.614867,87.0283333 442.2922,95.337 L442.2922,95.337 L442.1712,100.54 L442.2922,105.743 C442.614867,114.051667 445.176033,120.706667 449.9757,125.708 C454.775367,130.709333 461.611867,133.21 470.4852,133.21 Z M470.4852,124.135 C465.322533,124.135 461.2287,122.5015 458.2037,119.2345 C455.1787,115.9675 453.5452,111.268667 453.3032,105.138 L453.3032,105.138 L453.1822,100.54 L453.3032,95.942 C453.5452,89.8113333 455.1787,85.1125 458.2037,81.8455 C461.2287,78.5785 465.322533,76.945 470.4852,76.945 C475.647867,76.945 479.7417,78.5785 482.7667,81.8455 C485.7917,85.1125 487.4252,89.8113333 487.6672,95.942 C487.747867,96.7486667 487.7882,98.2813333 487.7882,100.54 C487.7882,102.798667 487.747867,104.331333 487.6672,105.138 C487.4252,111.268667 485.7917,115.9675 482.7667,119.2345 C479.7417,122.5015 475.647867,124.135 470.4852,124.135 Z M522.5152,154.99 C523.321867,154.99 523.987367,154.727833 524.5117,154.2035 C525.036033,153.679167 525.2982,153.013667 525.2982,152.207 L525.2982,152.207 L525.2982,124.014 C529.734867,130.144667 536.268867,133.21 544.9002,133.21 C553.3702,133.21 559.7227,130.507667 563.9577,125.103 C568.1927,119.698333 570.4312,112.882 570.6732,104.654 C570.753867,103.766667 570.7942,102.395333 570.7942,100.54 C570.7942,98.6846667 570.753867,97.3133333 570.6732,96.426 C570.4312,88.1173333 568.1927,81.2808333 563.9577,75.9165 C559.7227,70.5521667 553.3702,67.87 544.9002,67.87 C536.268867,67.87 529.613867,70.9756667 524.9352,77.187 L524.9352,77.187 L524.9352,71.863 C524.9352,70.9756667 524.6932,70.29 524.2092,69.806 C523.7252,69.322 523.039533,69.08 522.1522,69.08 L522.1522,69.08 L517.0702,69.08 C516.263533,69.08 515.598033,69.322 515.0737,69.806 C514.549367,70.29 514.2872,70.9756667 514.2872,71.863 L514.2872,71.863 L514.2872,152.207 C514.2872,153.094333 514.549367,153.78 515.0737,154.264 C515.598033,154.748 516.263533,154.99 517.0702,154.99 L517.0702,154.99 L522.5152,154.99 Z M542.6012,123.772 C537.115867,123.772 532.901033,121.977167 529.9567,118.3875 C527.012367,114.797833 525.459533,110.542667 525.2982,105.622 C525.217533,104.734667 525.1772,103.161667 525.1772,100.903 L525.177619,100.511529 C525.182085,98.4616471 525.222278,97.0191373 525.2982,96.184 C525.459533,91.102 526.972033,86.6855 529.8357,82.9345 C532.699367,79.1835 536.954533,77.308 542.6012,77.308 C554.055867,77.308 559.7832,85.052 559.7832,100.54 C559.7832,102.072667 559.742867,103.242333 559.6622,104.049 C559.4202,109.937667 557.9682,114.697 555.3062,118.327 C552.6442,121.957 548.4092,123.772 542.6012,123.772 Z" id="swoop" fill="#13B47E" fill-rule="nonzero"></path>
                <g id="Envelope-PERFECTION-Copy-5" transform="translate(0.000000, 59.000000)">
                    <path d="M162.298816,75.325 L36.0423606,75.325 L57.3511841,2.875 L183.607639,2.875 L162.298816,75.325 Z" id="Envelope" stroke="#13B47E" stroke-width="5.75" fill="#FFFFFF"></path>
                    <g id="envelope-inside" transform="translate(60.950000, 17.250000)" stroke="#13B47E" stroke-linecap="round" stroke-width="6.9">
                        <polyline id="Path-2" stroke-linejoin="round" points="11.7310997 -2.85993451e-14 45.6377453 32.6193459 97.1116367 -2.85993451e-14"></polyline>
                        <line x1="6.1284311e-14" y1="43.6836793" x2="33.7231149" y2="22.1499293" id="Path-3"></line>
                        <line x1="64.833495" y1="43.6836793" x2="85.533495" y2="24.1336793" id="Path-3" transform="translate(75.385380, 33.908679) scale(-1, 1) translate(-75.385380, -33.908679) "></line>
                    </g>
                    <g id="FAST" transform="translate(0.000000, 23.000000)" fill="#13B47E">
                        <polygon id="Rectangle" points="16.1 0 50.6 1.6310564e-14 48.3 8.05 13.8 8.05"></polygon>
                        <polygon id="Rectangle-Copy" points="24.15 24.15 42.55 24.15 40.25 32.2 21.85 32.2"></polygon>
                        <polygon id="Rectangle-Copy-2" points="2.3 24.15 16.1 24.15 13.8 32.2 -1.88130067e-13 32.2"></polygon>
                    </g>
                </g>
            </g>
        </g>
    </g>
</svg>